M48
; DRILL file {KiCad 9.0.0} date 2025-04-01T20:01:38-0300
; FORMAT={-:-/ absolute / metric / decimal}
; #@! TF.CreationDate,2025-04-01T20:01:38-03:00
; #@! TF.GenerationSoftware,Kicad,Pcbnew,9.0.0
; #@! TF.FileFunction,Plated,1,2,PTH
FMAT,2
METRIC
; #@! TA.AperFunction,Plated,PTH,ComponentDrill
T1C0.200
; #@! TA.AperFunction,Plated,PTH,ViaDrill
T2C0.500
; #@! TA.AperFunction,Plated,PTH,ViaDrill
T3C0.800
; #@! TA.AperFunction,Plated,PTH,ComponentDrill
T4C1.000
; #@! TA.AperFunction,Plated,PTH,ComponentDrill
T5C1.100
; #@! TA.AperFunction,Plated,PTH,ComponentDrill
T6C2.700
%
G90
G05
T1
X185.0Y-39.262
X185.0Y-40.788
X185.762Y-38.5
X185.762Y-40.025
X185.762Y-41.55
X186.525Y-39.262
X186.525Y-40.788
X187.287Y-38.5
X187.287Y-40.025
X187.287Y-41.55
X188.05Y-39.262
X188.05Y-40.788
T2
X197.645Y-35.294
T3
X180.0Y-52.5
X196.5Y-68.0
X199.0Y-84.5
X201.5Y-71.0
X201.518Y-65.045
X218.5Y-94.75
T4
X150.5Y-77.225
X150.5Y-79.765
X154.0Y-72.0
X154.0Y-86.0
X154.3Y-39.79
X154.3Y-42.33
X154.3Y-44.87
X154.3Y-47.41
X154.3Y-49.95
X154.3Y-52.49
X154.3Y-55.03
X154.3Y-57.57
X154.3Y-60.11
X164.96Y-86.0
X167.5Y-86.0
X169.0Y-32.7
X169.0Y-35.24
X169.0Y-37.78
X169.0Y-40.32
X176.0Y-72.0
X176.0Y-86.0
X184.46Y-92.0
X187.0Y-92.0
X193.5Y-92.0
X196.04Y-92.0
X202.225Y-92.0
X204.765Y-92.0
X211.225Y-92.0
X213.765Y-92.0
X217.82Y-44.87
X217.82Y-47.41
X217.82Y-49.95
X217.82Y-52.49
X217.82Y-55.03
X219.5Y-79.96
X219.5Y-82.5
T5
X164.75Y-44.75
X164.75Y-49.25
X171.25Y-44.75
X171.25Y-49.25
T6
X155.8Y-32.9
X155.8Y-67.0
X217.0Y-32.9
X217.0Y-67.0
M30
