%TF.GenerationSoftware,KiCad,Pcbnew,9.0.0*%
%TF.CreationDate,2025-04-01T19:23:24-03:00*%
%TF.ProjectId,ALFAGAME-v1,414c4641-4741-44d4-952d-76312e6b6963,rev?*%
%TF.SameCoordinates,Original*%
%TF.FileFunction,Copper,L2,Bot*%
%TF.FilePolarity,Positive*%
%FSLAX46Y46*%
G04 Gerber Fmt 4.6, Leading zero omitted, Abs format (unit mm)*
G04 Created by KiCad (PCBNEW 9.0.0) date 2025-04-01 19:23:24*
%MOMM*%
%LPD*%
G01*
G04 APERTURE LIST*
G04 Aperture macros list*
%AMRoundRect*
0 Rectangle with rounded corners*
0 $1 Rounding radius*
0 $2 $3 $4 $5 $6 $7 $8 $9 X,Y pos of 4 corners*
0 Add a 4 corners polygon primitive as box body*
4,1,4,$2,$3,$4,$5,$6,$7,$8,$9,$2,$3,0*
0 Add four circle primitives for the rounded corners*
1,1,$1+$1,$2,$3*
1,1,$1+$1,$4,$5*
1,1,$1+$1,$6,$7*
1,1,$1+$1,$8,$9*
0 Add four rect primitives between the rounded corners*
20,1,$1+$1,$2,$3,$4,$5,0*
20,1,$1+$1,$4,$5,$6,$7,0*
20,1,$1+$1,$6,$7,$8,$9,0*
20,1,$1+$1,$8,$9,$2,$3,0*%
G04 Aperture macros list end*
%TA.AperFunction,ComponentPad*%
%ADD10R,1.700000X1.700000*%
%TD*%
%TA.AperFunction,ComponentPad*%
%ADD11O,1.700000X1.700000*%
%TD*%
%TA.AperFunction,ComponentPad*%
%ADD12C,4.000000*%
%TD*%
%TA.AperFunction,ComponentPad*%
%ADD13R,1.500000X1.500000*%
%TD*%
%TA.AperFunction,ComponentPad*%
%ADD14C,1.500000*%
%TD*%
%TA.AperFunction,SMDPad,CuDef*%
%ADD15RoundRect,0.250000X0.312500X0.625000X-0.312500X0.625000X-0.312500X-0.625000X0.312500X-0.625000X0*%
%TD*%
%TA.AperFunction,SMDPad,CuDef*%
%ADD16RoundRect,0.250000X-0.625000X0.312500X-0.625000X-0.312500X0.625000X-0.312500X0.625000X0.312500X0*%
%TD*%
%TA.AperFunction,SMDPad,CuDef*%
%ADD17RoundRect,0.250000X-1.100000X0.325000X-1.100000X-0.325000X1.100000X-0.325000X1.100000X0.325000X0*%
%TD*%
%TA.AperFunction,SMDPad,CuDef*%
%ADD18RoundRect,0.250000X0.450000X0.800000X-0.450000X0.800000X-0.450000X-0.800000X0.450000X-0.800000X0*%
%TD*%
%TA.AperFunction,SMDPad,CuDef*%
%ADD19RoundRect,0.250000X0.325000X1.100000X-0.325000X1.100000X-0.325000X-1.100000X0.325000X-1.100000X0*%
%TD*%
%TA.AperFunction,ComponentPad*%
%ADD20C,2.000000*%
%TD*%
%TA.AperFunction,SMDPad,CuDef*%
%ADD21RoundRect,0.250000X1.100000X-0.325000X1.100000X0.325000X-1.100000X0.325000X-1.100000X-0.325000X0*%
%TD*%
%TA.AperFunction,SMDPad,CuDef*%
%ADD22RoundRect,0.250000X-0.550000X1.500000X-0.550000X-1.500000X0.550000X-1.500000X0.550000X1.500000X0*%
%TD*%
%TA.AperFunction,ComponentPad*%
%ADD23R,2.500000X2.500000*%
%TD*%
%TA.AperFunction,SMDPad,CuDef*%
%ADD24R,1.500000X0.900000*%
%TD*%
%TA.AperFunction,SMDPad,CuDef*%
%ADD25R,0.900000X1.500000*%
%TD*%
%TA.AperFunction,SMDPad,CuDef*%
%ADD26R,1.050000X1.050000*%
%TD*%
%TA.AperFunction,HeatsinkPad*%
%ADD27C,0.600000*%
%TD*%
%TA.AperFunction,HeatsinkPad*%
%ADD28R,4.200000X4.200000*%
%TD*%
%TA.AperFunction,ViaPad*%
%ADD29C,1.000000*%
%TD*%
%TA.AperFunction,ViaPad*%
%ADD30C,1.500000*%
%TD*%
%TA.AperFunction,Conductor*%
%ADD31C,0.500000*%
%TD*%
%TA.AperFunction,Conductor*%
%ADD32C,0.250000*%
%TD*%
%TA.AperFunction,Conductor*%
%ADD33C,0.200000*%
%TD*%
G04 APERTURE END LIST*
D10*
%TO.P,J6,1,Pin_1*%
%TO.N,Net-(J6-Pin_1)*%
X211225000Y-92000000D03*
D11*
%TO.P,J6,2,Pin_2*%
%TO.N,-BATT*%
X213765000Y-92000000D03*
%TD*%
D12*
%TO.P,DISPLAY2.8"1,*%
%TO.N,*%
X155800000Y-32900000D03*
X155800000Y-67000000D03*
X217000000Y-32900000D03*
X217000000Y-67000000D03*
D13*
%TO.P,DISPLAY2.8"1,1,VCC*%
%TO.N,+3V3*%
X154300000Y-39790000D03*
D14*
%TO.P,DISPLAY2.8"1,2,GND*%
%TO.N,-BATT*%
X154300000Y-42330000D03*
%TO.P,DISPLAY2.8"1,3,~{CS}*%
%TO.N,unconnected-(DISPLAY2.8"1-~{CS}-Pad3)*%
X154300000Y-44870000D03*
%TO.P,DISPLAY2.8"1,4,RESET*%
%TO.N,unconnected-(DISPLAY2.8"1-RESET-Pad4)*%
X154300000Y-47410000D03*
%TO.P,DISPLAY2.8"1,5,D/~{C}*%
%TO.N,unconnected-(DISPLAY2.8"1-D{slash}~{C}-Pad5)*%
X154300000Y-49950000D03*
%TO.P,DISPLAY2.8"1,6,MOSI*%
%TO.N,unconnected-(DISPLAY2.8"1-MOSI-Pad6)*%
X154300000Y-52490000D03*
%TO.P,DISPLAY2.8"1,7,SCK*%
%TO.N,unconnected-(DISPLAY2.8"1-SCK-Pad7)*%
X154300000Y-55030000D03*
%TO.P,DISPLAY2.8"1,8,LED*%
%TO.N,unconnected-(DISPLAY2.8"1-LED-Pad8)*%
X154300000Y-57570000D03*
%TO.P,DISPLAY2.8"1,9,MISO*%
%TO.N,unconnected-(DISPLAY2.8"1-MISO-Pad9)*%
X154300000Y-60110000D03*
%TO.P,DISPLAY2.8"1,10,SD_CS*%
%TO.N,unconnected-(DISPLAY2.8"1-SD_CS-Pad10)*%
X217820000Y-44870000D03*
%TO.P,DISPLAY2.8"1,11,SD_MOSI*%
%TO.N,unconnected-(DISPLAY2.8"1-SD_MOSI-Pad11)*%
X217820000Y-47410000D03*
%TO.P,DISPLAY2.8"1,12,SD_MISO*%
%TO.N,unconnected-(DISPLAY2.8"1-SD_MISO-Pad12)*%
X217820000Y-49950000D03*
%TO.P,DISPLAY2.8"1,13,SD_SCK*%
%TO.N,unconnected-(DISPLAY2.8"1-SD_SCK-Pad13)*%
X217820000Y-52490000D03*
%TO.P,DISPLAY2.8"1,14,FLASH_CD*%
%TO.N,unconnected-(DISPLAY2.8"1-FLASH_CD-Pad14)*%
X217820000Y-55030000D03*
%TD*%
D10*
%TO.P,BAT1,1,Pin_1*%
%TO.N,+BATT*%
X167500000Y-86000000D03*
D11*
%TO.P,BAT1,2,Pin_2*%
%TO.N,-BATT*%
X164960000Y-86000000D03*
%TD*%
D10*
%TO.P,J2,1,Pin_1*%
%TO.N,Net-(J2-Pin_1)*%
X184460000Y-92000000D03*
D11*
%TO.P,J2,2,Pin_2*%
%TO.N,-BATT*%
X187000000Y-92000000D03*
%TD*%
D10*
%TO.P,J4,1,Pin_1*%
%TO.N,Net-(J4-Pin_1)*%
X193500000Y-92000000D03*
D11*
%TO.P,J4,2,Pin_2*%
%TO.N,-BATT*%
X196040000Y-92000000D03*
%TD*%
D10*
%TO.P,J5,1,Pin_1*%
%TO.N,Net-(J5-Pin_1)*%
X202225000Y-92000000D03*
D11*
%TO.P,J5,2,Pin_2*%
%TO.N,-BATT*%
X204765000Y-92000000D03*
%TD*%
D10*
%TO.P,J3,1,Pin_1*%
%TO.N,+12V*%
X150500000Y-77225000D03*
D11*
%TO.P,J3,2,Pin_2*%
%TO.N,-BATT*%
X150500000Y-79765000D03*
%TD*%
D10*
%TO.P,SW1,1,Pin_1*%
%TO.N,+VSW*%
X219500000Y-82500000D03*
D11*
%TO.P,SW1,2,Pin_2*%
%TO.N,-VSW*%
X219500000Y-79960000D03*
%TD*%
D15*
%TO.P,R4,1*%
%TO.N,+3V3*%
X195962500Y-89000000D03*
%TO.P,R4,2*%
%TO.N,Net-(J4-Pin_1)*%
X193037500Y-89000000D03*
%TD*%
%TO.P,R6,1*%
%TO.N,+3V3*%
X213962500Y-89000000D03*
%TO.P,R6,2*%
%TO.N,Net-(J6-Pin_1)*%
X211037500Y-89000000D03*
%TD*%
D16*
%TO.P,R1,1*%
%TO.N,+3V3*%
X174500000Y-46037500D03*
%TO.P,R1,2*%
%TO.N,Net-(U2-IO0)*%
X174500000Y-48962500D03*
%TD*%
D17*
%TO.P,C3,1*%
%TO.N,-BATT*%
X200000000Y-32525000D03*
%TO.P,C3,2*%
%TO.N,+3V3*%
X200000000Y-35475000D03*
%TD*%
D18*
%TO.P,D2,1,K*%
%TO.N,+BATT*%
X185700000Y-84500000D03*
%TO.P,D2,2,A*%
%TO.N,Net-(D2-A)*%
X181300000Y-84500000D03*
%TD*%
D15*
%TO.P,R3,1*%
%TO.N,+3V3*%
X186962500Y-89000000D03*
%TO.P,R3,2*%
%TO.N,Net-(J2-Pin_1)*%
X184037500Y-89000000D03*
%TD*%
D18*
%TO.P,D3,1,K*%
%TO.N,+VSW*%
X196200000Y-84500000D03*
%TO.P,D3,2,A*%
%TO.N,+BATT*%
X191800000Y-84500000D03*
%TD*%
D17*
%TO.P,C2,1*%
%TO.N,-BATT*%
X205000000Y-32525000D03*
%TO.P,C2,2*%
%TO.N,+3V3*%
X205000000Y-35475000D03*
%TD*%
D19*
%TO.P,C1,1*%
%TO.N,Net-(U2-EN)*%
X201475000Y-40000000D03*
%TO.P,C1,2*%
%TO.N,-BATT*%
X198525000Y-40000000D03*
%TD*%
D20*
%TO.P,BOOT1,1,1*%
%TO.N,Net-(U2-IO0)*%
X164750000Y-49250000D03*
X171250000Y-49250000D03*
%TO.P,BOOT1,2,2*%
%TO.N,-BATT*%
X164750000Y-44750000D03*
X171250000Y-44750000D03*
%TD*%
D21*
%TO.P,C5,1*%
%TO.N,-VSW*%
X209000000Y-79975000D03*
%TO.P,C5,2*%
%TO.N,-BATT*%
X209000000Y-77025000D03*
%TD*%
D10*
%TO.P,J1,1,Pin_1*%
%TO.N,-BATT*%
X169000000Y-32700000D03*
D11*
%TO.P,J1,2,Pin_2*%
%TO.N,Net-(J1-Pin_2)*%
X169000000Y-35240000D03*
%TO.P,J1,3,Pin_3*%
%TO.N,Net-(J1-Pin_3)*%
X169000000Y-37780000D03*
%TO.P,J1,4,Pin_4*%
%TO.N,+3V3*%
X169000000Y-40320000D03*
%TD*%
D22*
%TO.P,C6,1*%
%TO.N,+3V3*%
X210000000Y-64800000D03*
%TO.P,C6,2*%
%TO.N,-BATT*%
X210000000Y-70200000D03*
%TD*%
D23*
%TO.P,M1,B+,B+*%
%TO.N,Net-(D2-A)*%
X176000000Y-72000000D03*
%TO.P,M1,B-,B-*%
%TO.N,-BATT*%
X176000000Y-86000000D03*
%TO.P,M1,IN+,IN+*%
%TO.N,+12V*%
X154000000Y-72000000D03*
%TO.P,M1,IN-,IN-*%
%TO.N,-BATT*%
X154000000Y-86000000D03*
%TD*%
D15*
%TO.P,R5,1*%
%TO.N,+3V3*%
X204962500Y-89000000D03*
%TO.P,R5,2*%
%TO.N,Net-(J5-Pin_1)*%
X202037500Y-89000000D03*
%TD*%
D24*
%TO.P,U2,1,GND*%
%TO.N,-BATT*%
X194595000Y-32685000D03*
%TO.P,U2,2,VDD*%
%TO.N,+3V3*%
X194595000Y-33955000D03*
%TO.P,U2,3,EN*%
%TO.N,Net-(U2-EN)*%
X194595000Y-35225000D03*
%TO.P,U2,4,SENSOR_VP*%
%TO.N,unconnected-(U2-SENSOR_VP-Pad4)*%
X194595000Y-36495000D03*
%TO.P,U2,5,SENSOR_VN*%
%TO.N,unconnected-(U2-SENSOR_VN-Pad5)*%
X194595000Y-37765000D03*
%TO.P,U2,6,IO34*%
%TO.N,unconnected-(U2-IO34-Pad6)*%
X194595000Y-39035000D03*
%TO.P,U2,7,IO35*%
%TO.N,unconnected-(U2-IO35-Pad7)*%
X194595000Y-40305000D03*
%TO.P,U2,8,IO32*%
%TO.N,unconnected-(U2-IO32-Pad8)*%
X194595000Y-41575000D03*
%TO.P,U2,9,IO33*%
%TO.N,unconnected-(U2-IO33-Pad9)*%
X194595000Y-42845000D03*
%TO.P,U2,10,IO25*%
%TO.N,unconnected-(U2-IO25-Pad10)*%
X194595000Y-44115000D03*
%TO.P,U2,11,IO26*%
%TO.N,Net-(J6-Pin_1)*%
X194595000Y-45385000D03*
%TO.P,U2,12,IO27*%
%TO.N,Net-(J5-Pin_1)*%
X194595000Y-46655000D03*
%TO.P,U2,13,IO14*%
%TO.N,unconnected-(U2-IO14-Pad13)*%
X194595000Y-47925000D03*
%TO.P,U2,14,IO12*%
%TO.N,Net-(J4-Pin_1)*%
X194595000Y-49195000D03*
D25*
%TO.P,U2,15,GND*%
%TO.N,-BATT*%
X191555000Y-50445000D03*
%TO.P,U2,16,IO13*%
%TO.N,Net-(J2-Pin_1)*%
X190285000Y-50445000D03*
%TO.P,U2,17,SHD/SD2*%
%TO.N,unconnected-(U2-SHD{slash}SD2-Pad17)*%
X189015000Y-50445000D03*
%TO.P,U2,18,SWP/SD3*%
%TO.N,unconnected-(U2-SWP{slash}SD3-Pad18)*%
X187745000Y-50445000D03*
%TO.P,U2,19,SCS/CMD*%
%TO.N,unconnected-(U2-SCS{slash}CMD-Pad19)*%
X186475000Y-50445000D03*
%TO.P,U2,20,SCK/CLK*%
%TO.N,unconnected-(U2-SCK{slash}CLK-Pad20)*%
X185205000Y-50445000D03*
%TO.P,U2,21,SDO/SD0*%
%TO.N,unconnected-(U2-SDO{slash}SD0-Pad21)*%
X183935000Y-50445000D03*
%TO.P,U2,22,SDI/SD1*%
%TO.N,unconnected-(U2-SDI{slash}SD1-Pad22)*%
X182665000Y-50445000D03*
%TO.P,U2,23,IO15*%
%TO.N,unconnected-(U2-IO15-Pad23)*%
X181395000Y-50445000D03*
%TO.P,U2,24,IO2*%
%TO.N,-BATT*%
X180125000Y-50445000D03*
D24*
%TO.P,U2,25,IO0*%
%TO.N,Net-(U2-IO0)*%
X177095000Y-49195000D03*
%TO.P,U2,26,IO4*%
%TO.N,unconnected-(U2-IO4-Pad26)*%
X177095000Y-47925000D03*
%TO.P,U2,27,IO16*%
%TO.N,unconnected-(U2-IO16-Pad27)*%
X177095000Y-46655000D03*
%TO.P,U2,28,IO17*%
%TO.N,unconnected-(U2-IO17-Pad28)*%
X177095000Y-45385000D03*
%TO.P,U2,29,IO5*%
%TO.N,unconnected-(U2-IO5-Pad29)*%
X177095000Y-44115000D03*
%TO.P,U2,30,IO18*%
%TO.N,unconnected-(U2-IO18-Pad30)*%
X177095000Y-42845000D03*
%TO.P,U2,31,IO19*%
%TO.N,unconnected-(U2-IO19-Pad31)*%
X177095000Y-41575000D03*
%TO.P,U2,32,NC*%
%TO.N,unconnected-(U2-NC-Pad32)*%
X177095000Y-40305000D03*
%TO.P,U2,33,IO21*%
%TO.N,unconnected-(U2-IO21-Pad33)*%
X177095000Y-39035000D03*
%TO.P,U2,34,RXD0/IO3*%
%TO.N,Net-(J1-Pin_3)*%
X177095000Y-37765000D03*
%TO.P,U2,35,TXD0/IO1*%
%TO.N,Net-(J1-Pin_2)*%
X177095000Y-36495000D03*
%TO.P,U2,36,IO22*%
%TO.N,unconnected-(U2-IO22-Pad36)*%
X177095000Y-35225000D03*
%TO.P,U2,37,IO23*%
%TO.N,unconnected-(U2-IO23-Pad37)*%
X177095000Y-33955000D03*
%TO.P,U2,38,GND*%
%TO.N,-BATT*%
X177095000Y-32685000D03*
D26*
%TO.P,U2,39,GND*%
X188050000Y-41550000D03*
D27*
X188050000Y-40787500D03*
D26*
X188050000Y-40025000D03*
D27*
X188050000Y-39262500D03*
D26*
X188050000Y-38500000D03*
D27*
X187287500Y-41550000D03*
X187287500Y-40025000D03*
X187287500Y-38500000D03*
D26*
X186525000Y-41550000D03*
D27*
X186525000Y-40787500D03*
D26*
X186525000Y-40025000D03*
D28*
X186525000Y-40025000D03*
D27*
X186525000Y-39262500D03*
D26*
X186525000Y-38500000D03*
D27*
X185762500Y-41550000D03*
X185762500Y-40025000D03*
X185762500Y-38500000D03*
D26*
X185000000Y-41550000D03*
D27*
X185000000Y-40787500D03*
D26*
X185000000Y-40025000D03*
D27*
X185000000Y-39262500D03*
D26*
X185000000Y-38500000D03*
%TD*%
D15*
%TO.P,R2,1*%
%TO.N,+3V3*%
X206462500Y-40500000D03*
%TO.P,R2,2*%
%TO.N,Net-(U2-EN)*%
X203537500Y-40500000D03*
%TD*%
D29*
%TO.N,+3V3*%
X197644586Y-35294065D03*
D30*
X218500000Y-94750000D03*
X196500000Y-68000000D03*
%TO.N,-BATT*%
X201500000Y-71000000D03*
X180000000Y-52500000D03*
%TO.N,+VSW*%
X199000000Y-84500000D03*
%TO.N,-VSW*%
X201518054Y-65044590D03*
%TD*%
D31*
%TO.N,Net-(U2-EN)*%
X200950000Y-38450000D02*
X199500000Y-37000000D01*
X201975000Y-40500000D02*
X201475000Y-40000000D01*
X195725000Y-35225000D02*
X194595000Y-35225000D01*
X199500000Y-37000000D02*
X197500000Y-37000000D01*
X197500000Y-37000000D02*
X195725000Y-35225000D01*
D32*
X200950000Y-38475000D02*
X200950000Y-38450000D01*
D31*
X201475000Y-40000000D02*
X201475000Y-39000000D01*
X203537500Y-40500000D02*
X201975000Y-40500000D01*
X201475000Y-39000000D02*
X200950000Y-38475000D01*
D33*
%TO.N,Net-(J1-Pin_3)*%
X177095000Y-37765000D02*
X177080000Y-37780000D01*
D32*
X177080000Y-37780000D02*
X169000000Y-37780000D01*
%TO.N,Net-(J1-Pin_2)*%
X173255000Y-36495000D02*
X172000000Y-35240000D01*
X177095000Y-36495000D02*
X173255000Y-36495000D01*
X169000000Y-35240000D02*
X172000000Y-35240000D01*
%TO.N,Net-(U2-IO0)*%
X177095000Y-49195000D02*
X175195000Y-49195000D01*
X174500000Y-48500000D02*
X172000000Y-48500000D01*
X172000000Y-48500000D02*
X171250000Y-49250000D01*
X175195000Y-49195000D02*
X174500000Y-48500000D01*
D31*
%TO.N,+3V3*%
X208000000Y-93500000D02*
X208000000Y-90500000D01*
X199000000Y-90000000D02*
X199000000Y-94000000D01*
X210000000Y-64800000D02*
X206800000Y-68000000D01*
X200000000Y-35500000D02*
X197850521Y-35500000D01*
X198000000Y-89000000D02*
X199000000Y-90000000D01*
X216000000Y-86000000D02*
X210500000Y-86000000D01*
X205000000Y-35475000D02*
X206462500Y-36937500D01*
X199000000Y-94000000D02*
X199500000Y-94500000D01*
X208000000Y-90500000D02*
X206500000Y-89000000D01*
D32*
X172000000Y-40320000D02*
X174500000Y-42820000D01*
D31*
X190000000Y-90000000D02*
X190000000Y-93000000D01*
X199500000Y-94500000D02*
X199750000Y-94750000D01*
X206462500Y-36937500D02*
X206462500Y-40500000D01*
X197850521Y-35500000D02*
X197644586Y-35294065D01*
X189000000Y-89000000D02*
X190000000Y-90000000D01*
X186500000Y-89000000D02*
X189000000Y-89000000D01*
X203475000Y-35475000D02*
X205000000Y-35475000D01*
X196305521Y-33955000D02*
X197644586Y-35294065D01*
X218500000Y-94750000D02*
X218500000Y-88500000D01*
D33*
X204000000Y-35475000D02*
X203475000Y-35475000D01*
D31*
X209250000Y-94750000D02*
X208000000Y-93500000D01*
X210500000Y-86000000D02*
X196500000Y-72000000D01*
X206500000Y-89000000D02*
X204500000Y-89000000D01*
X204975000Y-35500000D02*
X200025000Y-35500000D01*
X204000000Y-35475000D02*
X205000000Y-35475000D01*
X196500000Y-72000000D02*
X196500000Y-68000000D01*
X191500000Y-94500000D02*
X199500000Y-94500000D01*
X190000000Y-93000000D02*
X191500000Y-94500000D01*
X217500000Y-87500000D02*
X216000000Y-86000000D01*
X218500000Y-94750000D02*
X209250000Y-94750000D01*
X195500000Y-89000000D02*
X198000000Y-89000000D01*
X205000000Y-35475000D02*
X204975000Y-35500000D01*
D32*
X174500000Y-42820000D02*
X174500000Y-46500000D01*
D31*
X206800000Y-68000000D02*
X196500000Y-68000000D01*
X216000000Y-89000000D02*
X217500000Y-87500000D01*
D32*
X172000000Y-40320000D02*
X169000000Y-40320000D01*
D31*
X200025000Y-35500000D02*
X200000000Y-35475000D01*
X218500000Y-88500000D02*
X217500000Y-87500000D01*
X194595000Y-33955000D02*
X196305521Y-33955000D01*
X213500000Y-89000000D02*
X216000000Y-89000000D01*
X199750000Y-94750000D02*
X209250000Y-94750000D01*
D33*
X204000000Y-35475000D02*
X204000000Y-35500000D01*
D31*
%TO.N,-BATT*%
X209000000Y-77550000D02*
X209000000Y-71200000D01*
X172000000Y-32700000D02*
X167800000Y-32700000D01*
X162330000Y-42330000D02*
X154300000Y-42330000D01*
X197500000Y-32500000D02*
X200000000Y-32500000D01*
X191555000Y-45055000D02*
X188050000Y-41550000D01*
X194595000Y-32685000D02*
X186500000Y-32685000D01*
X208500000Y-34000000D02*
X208500000Y-43000000D01*
X164750000Y-44750000D02*
X162330000Y-42330000D01*
X204000000Y-32525000D02*
X207025000Y-32525000D01*
X201500000Y-71000000D02*
X209200000Y-71000000D01*
X200000000Y-32500000D02*
X203975000Y-32500000D01*
X201025000Y-32525000D02*
X204000000Y-32525000D01*
D33*
X199815000Y-32685000D02*
X200000000Y-32500000D01*
D31*
X198525000Y-42525000D02*
X198525000Y-39000000D01*
X164750000Y-35250000D02*
X167300000Y-32700000D01*
X154000000Y-85000000D02*
X154000000Y-86000000D01*
X186525000Y-40025000D02*
X186525000Y-32710000D01*
X194780000Y-32500000D02*
X197500000Y-32500000D01*
X207025000Y-32525000D02*
X208500000Y-34000000D01*
X186500000Y-32685000D02*
X177095000Y-32685000D01*
X186525000Y-32710000D02*
X186500000Y-32685000D01*
X208500000Y-43000000D02*
X199000000Y-43000000D01*
X209000000Y-71200000D02*
X210000000Y-70200000D01*
D33*
X177080000Y-32700000D02*
X177095000Y-32685000D01*
D31*
X154000000Y-83265000D02*
X154000000Y-86000000D01*
X191555000Y-50445000D02*
X191555000Y-45055000D01*
D33*
X203975000Y-32500000D02*
X204000000Y-32525000D01*
D31*
X199000000Y-43000000D02*
X198525000Y-42525000D01*
X164750000Y-44750000D02*
X164750000Y-35250000D01*
X150500000Y-79765000D02*
X154000000Y-83265000D01*
X194595000Y-32685000D02*
X194780000Y-32500000D01*
D33*
X180125000Y-52375000D02*
X180000000Y-52500000D01*
D31*
X167300000Y-32700000D02*
X169000000Y-32700000D01*
X209200000Y-71000000D02*
X210000000Y-70200000D01*
X172000000Y-32700000D02*
X177080000Y-32700000D01*
D33*
X180125000Y-50445000D02*
X180125000Y-52375000D01*
D31*
%TO.N,+VSW*%
X199000000Y-84500000D02*
X197325000Y-84500000D01*
%TO.N,+BATT*%
X186825000Y-84500000D02*
X190675000Y-84500000D01*
X185000000Y-84500000D02*
X180000000Y-89500000D01*
X186825000Y-84500000D02*
X185000000Y-84500000D01*
X173000000Y-89500000D02*
X169500000Y-86000000D01*
X180000000Y-89500000D02*
X173000000Y-89500000D01*
X169500000Y-86000000D02*
X167500000Y-86000000D01*
%TO.N,Net-(D2-A)*%
X180850000Y-84500000D02*
X180850000Y-76850000D01*
X180850000Y-76850000D02*
X176000000Y-72000000D01*
%TO.N,+12V*%
X150500000Y-77225000D02*
X150500000Y-75500000D01*
X150500000Y-75500000D02*
X154000000Y-72000000D01*
%TO.N,-VSW*%
X221000000Y-66000000D02*
X215500000Y-60500000D01*
X206062644Y-60500000D02*
X201518054Y-65044590D01*
X215500000Y-60500000D02*
X206062644Y-60500000D01*
X208950000Y-79500000D02*
X209000000Y-79450000D01*
X221000000Y-78460000D02*
X221000000Y-66000000D01*
X219500000Y-79960000D02*
X209510000Y-79960000D01*
X209510000Y-79960000D02*
X209000000Y-79450000D01*
X219500000Y-79960000D02*
X221000000Y-78460000D01*
%TO.N,Net-(J2-Pin_1)*%
X192500000Y-80500000D02*
X192500000Y-87000000D01*
D33*
X184500000Y-91960000D02*
X184460000Y-92000000D01*
D31*
X190285000Y-50445000D02*
X190285000Y-52715000D01*
X184500000Y-89000000D02*
X184500000Y-91960000D01*
X192500000Y-87000000D02*
X186500000Y-87000000D01*
X190285000Y-52715000D02*
X187000000Y-56000000D01*
X186500000Y-87000000D02*
X184500000Y-89000000D01*
X187000000Y-56000000D02*
X187000000Y-75000000D01*
X187000000Y-75000000D02*
X192500000Y-80500000D01*
%TO.N,Net-(J4-Pin_1)*%
X188500000Y-56500000D02*
X188500000Y-74000000D01*
X194500000Y-80000000D02*
X194500000Y-86500000D01*
X188500000Y-74000000D02*
X194500000Y-80000000D01*
X194595000Y-49195000D02*
X194595000Y-50405000D01*
X193500000Y-89000000D02*
X193500000Y-92000000D01*
X194500000Y-49290000D02*
X194595000Y-49195000D01*
X193500000Y-90000000D02*
X193500000Y-89500000D01*
X194500000Y-86500000D02*
X193500000Y-87500000D01*
X194595000Y-50405000D02*
X188500000Y-56500000D01*
X193500000Y-87500000D02*
X193500000Y-89000000D01*
%TO.N,Net-(J5-Pin_1)*%
X194595000Y-46655000D02*
X195427000Y-46655000D01*
X202500000Y-89000000D02*
X202500000Y-91725000D01*
X190500000Y-57500000D02*
X190500000Y-73000000D01*
X190500000Y-73000000D02*
X202500000Y-85000000D01*
X196500000Y-51500000D02*
X190500000Y-57500000D01*
X202500000Y-85000000D02*
X202500000Y-89000000D01*
X196500000Y-47728000D02*
X196500000Y-51500000D01*
X202500000Y-91725000D02*
X202225000Y-92000000D01*
X195427000Y-46655000D02*
X196500000Y-47728000D01*
%TO.N,Net-(J6-Pin_1)*%
X211500000Y-91725000D02*
X211225000Y-92000000D01*
X192000000Y-72000000D02*
X192000000Y-58500000D01*
X198000000Y-47000000D02*
X196385000Y-45385000D01*
X192000000Y-72000000D02*
X209000000Y-89000000D01*
X196385000Y-45385000D02*
X194595000Y-45385000D01*
X192000000Y-58500000D02*
X198000000Y-52500000D01*
X211500000Y-89000000D02*
X211500000Y-91725000D01*
X209000000Y-89000000D02*
X211500000Y-89000000D01*
X198000000Y-52500000D02*
X198000000Y-47000000D01*
%TD*%
M02*
