%TF.GenerationSoftware,KiCad,Pcbnew,9.0.0*%
%TF.CreationDate,2025-04-01T19:23:25-03:00*%
%TF.ProjectId,ALFAGAME-v1,414c4641-4741-44d4-952d-76312e6b6963,rev?*%
%TF.SameCoordinates,Original*%
%TF.FileFunction,Soldermask,Bot*%
%TF.FilePolarity,Negative*%
%FSLAX46Y46*%
G04 Gerber Fmt 4.6, Leading zero omitted, Abs format (unit mm)*
G04 Created by KiCad (PCBNEW 9.0.0) date 2025-04-01 19:23:25*
%MOMM*%
%LPD*%
G01*
G04 APERTURE LIST*
G04 Aperture macros list*
%AMRoundRect*
0 Rectangle with rounded corners*
0 $1 Rounding radius*
0 $2 $3 $4 $5 $6 $7 $8 $9 X,Y pos of 4 corners*
0 Add a 4 corners polygon primitive as box body*
4,1,4,$2,$3,$4,$5,$6,$7,$8,$9,$2,$3,0*
0 Add four circle primitives for the rounded corners*
1,1,$1+$1,$2,$3*
1,1,$1+$1,$4,$5*
1,1,$1+$1,$6,$7*
1,1,$1+$1,$8,$9*
0 Add four rect primitives between the rounded corners*
20,1,$1+$1,$2,$3,$4,$5,0*
20,1,$1+$1,$4,$5,$6,$7,0*
20,1,$1+$1,$6,$7,$8,$9,0*
20,1,$1+$1,$8,$9,$2,$3,0*%
G04 Aperture macros list end*
%ADD10R,1.700000X1.700000*%
%ADD11O,1.700000X1.700000*%
%ADD12C,4.000000*%
%ADD13R,1.500000X1.500000*%
%ADD14C,1.500000*%
%ADD15RoundRect,0.250000X0.312500X0.625000X-0.312500X0.625000X-0.312500X-0.625000X0.312500X-0.625000X0*%
%ADD16RoundRect,0.250000X-0.625000X0.312500X-0.625000X-0.312500X0.625000X-0.312500X0.625000X0.312500X0*%
%ADD17RoundRect,0.250000X-1.100000X0.325000X-1.100000X-0.325000X1.100000X-0.325000X1.100000X0.325000X0*%
%ADD18RoundRect,0.250000X0.450000X0.800000X-0.450000X0.800000X-0.450000X-0.800000X0.450000X-0.800000X0*%
%ADD19RoundRect,0.250000X0.325000X1.100000X-0.325000X1.100000X-0.325000X-1.100000X0.325000X-1.100000X0*%
%ADD20C,2.000000*%
%ADD21RoundRect,0.250000X1.100000X-0.325000X1.100000X0.325000X-1.100000X0.325000X-1.100000X-0.325000X0*%
%ADD22RoundRect,0.250000X-0.550000X1.500000X-0.550000X-1.500000X0.550000X-1.500000X0.550000X1.500000X0*%
%ADD23R,2.500000X2.500000*%
%ADD24R,1.500000X0.900000*%
%ADD25R,0.900000X1.500000*%
%ADD26C,0.600000*%
%ADD27R,4.200000X4.200000*%
G04 APERTURE END LIST*
D10*
%TO.C,J6*%
X211225000Y-92000000D03*
D11*
X213765000Y-92000000D03*
%TD*%
D12*
%TO.C,DISPLAY2.8"1*%
X155800000Y-32900000D03*
X155800000Y-67000000D03*
X217000000Y-32900000D03*
X217000000Y-67000000D03*
D13*
X154300000Y-39790000D03*
D14*
X154300000Y-42330000D03*
X154300000Y-44870000D03*
X154300000Y-47410000D03*
X154300000Y-49950000D03*
X154300000Y-52490000D03*
X154300000Y-55030000D03*
X154300000Y-57570000D03*
X154300000Y-60110000D03*
X217820000Y-44870000D03*
X217820000Y-47410000D03*
X217820000Y-49950000D03*
X217820000Y-52490000D03*
X217820000Y-55030000D03*
%TD*%
D10*
%TO.C,BAT1*%
X167500000Y-86000000D03*
D11*
X164960000Y-86000000D03*
%TD*%
D10*
%TO.C,J2*%
X184460000Y-92000000D03*
D11*
X187000000Y-92000000D03*
%TD*%
D10*
%TO.C,J4*%
X193500000Y-92000000D03*
D11*
X196040000Y-92000000D03*
%TD*%
D10*
%TO.C,J5*%
X202225000Y-92000000D03*
D11*
X204765000Y-92000000D03*
%TD*%
D10*
%TO.C,J3*%
X150500000Y-77225000D03*
D11*
X150500000Y-79765000D03*
%TD*%
D10*
%TO.C,SW1*%
X219500000Y-82500000D03*
D11*
X219500000Y-79960000D03*
%TD*%
D15*
%TO.C,R4*%
X195962500Y-89000000D03*
X193037500Y-89000000D03*
%TD*%
%TO.C,R6*%
X213962500Y-89000000D03*
X211037500Y-89000000D03*
%TD*%
D16*
%TO.C,R1*%
X174500000Y-46037500D03*
X174500000Y-48962500D03*
%TD*%
D17*
%TO.C,C3*%
X200000000Y-32525000D03*
X200000000Y-35475000D03*
%TD*%
D18*
%TO.C,D2*%
X185700000Y-84500000D03*
X181300000Y-84500000D03*
%TD*%
D15*
%TO.C,R3*%
X186962500Y-89000000D03*
X184037500Y-89000000D03*
%TD*%
D18*
%TO.C,D3*%
X196200000Y-84500000D03*
X191800000Y-84500000D03*
%TD*%
D17*
%TO.C,C2*%
X205000000Y-32525000D03*
X205000000Y-35475000D03*
%TD*%
D19*
%TO.C,C1*%
X201475000Y-40000000D03*
X198525000Y-40000000D03*
%TD*%
D20*
%TO.C,BOOT1*%
X164750000Y-49250000D03*
X171250000Y-49250000D03*
X164750000Y-44750000D03*
X171250000Y-44750000D03*
%TD*%
D21*
%TO.C,C5*%
X209000000Y-79975000D03*
X209000000Y-77025000D03*
%TD*%
D10*
%TO.C,J1*%
X169000000Y-32700000D03*
D11*
X169000000Y-35240000D03*
X169000000Y-37780000D03*
X169000000Y-40320000D03*
%TD*%
D22*
%TO.C,C6*%
X210000000Y-64800000D03*
X210000000Y-70200000D03*
%TD*%
D23*
%TO.C,M1*%
X176000000Y-72000000D03*
X176000000Y-86000000D03*
X154000000Y-72000000D03*
X154000000Y-86000000D03*
%TD*%
D15*
%TO.C,R5*%
X204962500Y-89000000D03*
X202037500Y-89000000D03*
%TD*%
D24*
%TO.C,U2*%
X194595000Y-32685000D03*
X194595000Y-33955000D03*
X194595000Y-35225000D03*
X194595000Y-36495000D03*
X194595000Y-37765000D03*
X194595000Y-39035000D03*
X194595000Y-40305000D03*
X194595000Y-41575000D03*
X194595000Y-42845000D03*
X194595000Y-44115000D03*
X194595000Y-45385000D03*
X194595000Y-46655000D03*
X194595000Y-47925000D03*
X194595000Y-49195000D03*
D25*
X191555000Y-50445000D03*
X190285000Y-50445000D03*
X189015000Y-50445000D03*
X187745000Y-50445000D03*
X186475000Y-50445000D03*
X185205000Y-50445000D03*
X183935000Y-50445000D03*
X182665000Y-50445000D03*
X181395000Y-50445000D03*
X180125000Y-50445000D03*
D24*
X177095000Y-49195000D03*
X177095000Y-47925000D03*
X177095000Y-46655000D03*
X177095000Y-45385000D03*
X177095000Y-44115000D03*
X177095000Y-42845000D03*
X177095000Y-41575000D03*
X177095000Y-40305000D03*
X177095000Y-39035000D03*
X177095000Y-37765000D03*
X177095000Y-36495000D03*
X177095000Y-35225000D03*
X177095000Y-33955000D03*
X177095000Y-32685000D03*
D26*
X188050000Y-40787500D03*
X188050000Y-39262500D03*
X187287500Y-41550000D03*
X187287500Y-40025000D03*
X187287500Y-38500000D03*
X186525000Y-40787500D03*
D27*
X186525000Y-40025000D03*
D26*
X186525000Y-39262500D03*
X185762500Y-41550000D03*
X185762500Y-40025000D03*
X185762500Y-38500000D03*
X185000000Y-40787500D03*
X185000000Y-39262500D03*
%TD*%
D15*
%TO.C,R2*%
X206462500Y-40500000D03*
X203537500Y-40500000D03*
%TD*%
M02*
