%TF.GenerationSoftware,KiCad,Pcbnew,9.0.0*%
%TF.CreationDate,2025-04-01T19:23:24-03:00*%
%TF.ProjectId,ALFAGAME-v1,414c4641-4741-44d4-952d-76312e6b6963,rev?*%
%TF.SameCoordinates,Original*%
%TF.FileFunction,Copper,L1,Top*%
%TF.FilePolarity,Positive*%
%FSLAX46Y46*%
G04 Gerber Fmt 4.6, Leading zero omitted, Abs format (unit mm)*
G04 Created by KiCad (PCBNEW 9.0.0) date 2025-04-01 19:23:24*
%MOMM*%
%LPD*%
G01*
G04 APERTURE LIST*
%ADD10C,0.300000*%
%TA.AperFunction,NonConductor*%
%ADD11C,0.300000*%
%TD*%
%TA.AperFunction,NonConductor*%
%ADD12C,0.200000*%
%TD*%
%TA.AperFunction,ComponentPad*%
%ADD13R,1.700000X1.700000*%
%TD*%
%TA.AperFunction,ComponentPad*%
%ADD14O,1.700000X1.700000*%
%TD*%
%TA.AperFunction,ComponentPad*%
%ADD15C,4.000000*%
%TD*%
%TA.AperFunction,ComponentPad*%
%ADD16R,1.500000X1.500000*%
%TD*%
%TA.AperFunction,ComponentPad*%
%ADD17C,1.500000*%
%TD*%
%TA.AperFunction,SMDPad,CuDef*%
%ADD18R,1.506220X1.506220*%
%TD*%
%TA.AperFunction,SMDPad,CuDef*%
%ADD19R,2.000000X3.000000*%
%TD*%
%TA.AperFunction,ComponentPad*%
%ADD20C,2.000000*%
%TD*%
%TA.AperFunction,ComponentPad*%
%ADD21R,2.500000X2.500000*%
%TD*%
%TA.AperFunction,HeatsinkPad*%
%ADD22C,0.600000*%
%TD*%
%TA.AperFunction,ViaPad*%
%ADD23C,1.000000*%
%TD*%
%TA.AperFunction,ViaPad*%
%ADD24C,1.500000*%
%TD*%
%TA.AperFunction,Conductor*%
%ADD25C,0.500000*%
%TD*%
%TA.AperFunction,Conductor*%
%ADD26C,0.200000*%
%TD*%
G04 APERTURE END LIST*
D10*
D11*
X236378328Y-64285713D02*
X236378328Y-63285713D01*
X236378328Y-63285713D02*
X237878328Y-63928570D01*
X237878328Y-61928570D02*
X237878328Y-62785713D01*
X237878328Y-62357142D02*
X236378328Y-62357142D01*
X236378328Y-62357142D02*
X236592614Y-62499999D01*
X236592614Y-62499999D02*
X236735471Y-62642856D01*
X236735471Y-62642856D02*
X236806900Y-62785713D01*
X237878328Y-60142857D02*
X236878328Y-60142857D01*
X237021185Y-60142857D02*
X236949757Y-60071428D01*
X236949757Y-60071428D02*
X236878328Y-59928571D01*
X236878328Y-59928571D02*
X236878328Y-59714285D01*
X236878328Y-59714285D02*
X236949757Y-59571428D01*
X236949757Y-59571428D02*
X237092614Y-59500000D01*
X237092614Y-59500000D02*
X237878328Y-59500000D01*
X237092614Y-59500000D02*
X236949757Y-59428571D01*
X236949757Y-59428571D02*
X236878328Y-59285714D01*
X236878328Y-59285714D02*
X236878328Y-59071428D01*
X236878328Y-59071428D02*
X236949757Y-58928571D01*
X236949757Y-58928571D02*
X237092614Y-58857142D01*
X237092614Y-58857142D02*
X237878328Y-58857142D01*
X237878328Y-58142857D02*
X236878328Y-58142857D01*
X237021185Y-58142857D02*
X236949757Y-58071428D01*
X236949757Y-58071428D02*
X236878328Y-57928571D01*
X236878328Y-57928571D02*
X236878328Y-57714285D01*
X236878328Y-57714285D02*
X236949757Y-57571428D01*
X236949757Y-57571428D02*
X237092614Y-57500000D01*
X237092614Y-57500000D02*
X237878328Y-57500000D01*
X237092614Y-57500000D02*
X236949757Y-57428571D01*
X236949757Y-57428571D02*
X236878328Y-57285714D01*
X236878328Y-57285714D02*
X236878328Y-57071428D01*
X236878328Y-57071428D02*
X236949757Y-56928571D01*
X236949757Y-56928571D02*
X237092614Y-56857142D01*
X237092614Y-56857142D02*
X237878328Y-56857142D01*
D12*
X226000000Y-96000000D02*
X239586420Y-96000000D01*
X239586420Y-25000000D02*
X226000000Y-25000000D01*
X239000000Y-96000000D02*
X239000000Y-25000000D01*
X239000000Y-96000000D02*
X239000000Y-25000000D01*
X239000000Y-96000000D02*
X238413579Y-94873496D01*
X239000000Y-96000000D02*
X239586421Y-94873496D01*
X239000000Y-25000000D02*
X239586421Y-26126504D01*
X239000000Y-25000000D02*
X238413579Y-26126504D01*
X239000000Y-96000000D02*
X239000000Y-25000000D01*
X239000000Y-96000000D02*
X239000000Y-25000000D01*
X239000000Y-96000000D02*
X238413579Y-94873496D01*
X239000000Y-96000000D02*
X239586421Y-94873496D01*
X239000000Y-25000000D02*
X239586421Y-26126504D01*
X239000000Y-25000000D02*
X238413579Y-26126504D01*
D10*
D11*
X182071429Y-106021185D02*
X181928572Y-105949757D01*
X181928572Y-105949757D02*
X181857143Y-105878328D01*
X181857143Y-105878328D02*
X181785715Y-105735471D01*
X181785715Y-105735471D02*
X181785715Y-105664042D01*
X181785715Y-105664042D02*
X181857143Y-105521185D01*
X181857143Y-105521185D02*
X181928572Y-105449757D01*
X181928572Y-105449757D02*
X182071429Y-105378328D01*
X182071429Y-105378328D02*
X182357143Y-105378328D01*
X182357143Y-105378328D02*
X182500001Y-105449757D01*
X182500001Y-105449757D02*
X182571429Y-105521185D01*
X182571429Y-105521185D02*
X182642858Y-105664042D01*
X182642858Y-105664042D02*
X182642858Y-105735471D01*
X182642858Y-105735471D02*
X182571429Y-105878328D01*
X182571429Y-105878328D02*
X182500001Y-105949757D01*
X182500001Y-105949757D02*
X182357143Y-106021185D01*
X182357143Y-106021185D02*
X182071429Y-106021185D01*
X182071429Y-106021185D02*
X181928572Y-106092614D01*
X181928572Y-106092614D02*
X181857143Y-106164042D01*
X181857143Y-106164042D02*
X181785715Y-106306900D01*
X181785715Y-106306900D02*
X181785715Y-106592614D01*
X181785715Y-106592614D02*
X181857143Y-106735471D01*
X181857143Y-106735471D02*
X181928572Y-106806900D01*
X181928572Y-106806900D02*
X182071429Y-106878328D01*
X182071429Y-106878328D02*
X182357143Y-106878328D01*
X182357143Y-106878328D02*
X182500001Y-106806900D01*
X182500001Y-106806900D02*
X182571429Y-106735471D01*
X182571429Y-106735471D02*
X182642858Y-106592614D01*
X182642858Y-106592614D02*
X182642858Y-106306900D01*
X182642858Y-106306900D02*
X182571429Y-106164042D01*
X182571429Y-106164042D02*
X182500001Y-106092614D01*
X182500001Y-106092614D02*
X182357143Y-106021185D01*
X183571429Y-105378328D02*
X183714286Y-105378328D01*
X183714286Y-105378328D02*
X183857143Y-105449757D01*
X183857143Y-105449757D02*
X183928572Y-105521185D01*
X183928572Y-105521185D02*
X184000000Y-105664042D01*
X184000000Y-105664042D02*
X184071429Y-105949757D01*
X184071429Y-105949757D02*
X184071429Y-106306900D01*
X184071429Y-106306900D02*
X184000000Y-106592614D01*
X184000000Y-106592614D02*
X183928572Y-106735471D01*
X183928572Y-106735471D02*
X183857143Y-106806900D01*
X183857143Y-106806900D02*
X183714286Y-106878328D01*
X183714286Y-106878328D02*
X183571429Y-106878328D01*
X183571429Y-106878328D02*
X183428572Y-106806900D01*
X183428572Y-106806900D02*
X183357143Y-106735471D01*
X183357143Y-106735471D02*
X183285714Y-106592614D01*
X183285714Y-106592614D02*
X183214286Y-106306900D01*
X183214286Y-106306900D02*
X183214286Y-105949757D01*
X183214286Y-105949757D02*
X183285714Y-105664042D01*
X183285714Y-105664042D02*
X183357143Y-105521185D01*
X183357143Y-105521185D02*
X183428572Y-105449757D01*
X183428572Y-105449757D02*
X183571429Y-105378328D01*
X185857142Y-106878328D02*
X185857142Y-105878328D01*
X185857142Y-106021185D02*
X185928571Y-105949757D01*
X185928571Y-105949757D02*
X186071428Y-105878328D01*
X186071428Y-105878328D02*
X186285714Y-105878328D01*
X186285714Y-105878328D02*
X186428571Y-105949757D01*
X186428571Y-105949757D02*
X186500000Y-106092614D01*
X186500000Y-106092614D02*
X186500000Y-106878328D01*
X186500000Y-106092614D02*
X186571428Y-105949757D01*
X186571428Y-105949757D02*
X186714285Y-105878328D01*
X186714285Y-105878328D02*
X186928571Y-105878328D01*
X186928571Y-105878328D02*
X187071428Y-105949757D01*
X187071428Y-105949757D02*
X187142857Y-106092614D01*
X187142857Y-106092614D02*
X187142857Y-106878328D01*
X187857142Y-106878328D02*
X187857142Y-105878328D01*
X187857142Y-106021185D02*
X187928571Y-105949757D01*
X187928571Y-105949757D02*
X188071428Y-105878328D01*
X188071428Y-105878328D02*
X188285714Y-105878328D01*
X188285714Y-105878328D02*
X188428571Y-105949757D01*
X188428571Y-105949757D02*
X188500000Y-106092614D01*
X188500000Y-106092614D02*
X188500000Y-106878328D01*
X188500000Y-106092614D02*
X188571428Y-105949757D01*
X188571428Y-105949757D02*
X188714285Y-105878328D01*
X188714285Y-105878328D02*
X188928571Y-105878328D01*
X188928571Y-105878328D02*
X189071428Y-105949757D01*
X189071428Y-105949757D02*
X189142857Y-106092614D01*
X189142857Y-106092614D02*
X189142857Y-106878328D01*
D12*
X145500000Y-96500000D02*
X145500000Y-108586420D01*
X225500000Y-108586420D02*
X225500000Y-96500000D01*
X145500000Y-108000000D02*
X225500000Y-108000000D01*
X145500000Y-108000000D02*
X225500000Y-108000000D01*
X145500000Y-108000000D02*
X146626504Y-107413579D01*
X145500000Y-108000000D02*
X146626504Y-108586421D01*
X225500000Y-108000000D02*
X224373496Y-108586421D01*
X225500000Y-108000000D02*
X224373496Y-107413579D01*
X145500000Y-108000000D02*
X225500000Y-108000000D01*
X145500000Y-108000000D02*
X225500000Y-108000000D01*
X145500000Y-108000000D02*
X146626504Y-107413579D01*
X145500000Y-108000000D02*
X146626504Y-108586421D01*
X225500000Y-108000000D02*
X224373496Y-108586421D01*
X225500000Y-108000000D02*
X224373496Y-107413579D01*
D13*
%TO.P,J6,1,Pin_1*%
%TO.N,Net-(J6-Pin_1)*%
X211225000Y-92000000D03*
D14*
%TO.P,J6,2,Pin_2*%
%TO.N,-BATT*%
X213765000Y-92000000D03*
%TD*%
D15*
%TO.P,DISPLAY2.8"1,*%
%TO.N,*%
X155800000Y-32900000D03*
X155800000Y-67000000D03*
X217000000Y-32900000D03*
X217000000Y-67000000D03*
D16*
%TO.P,DISPLAY2.8"1,1,VCC*%
%TO.N,+3V3*%
X154300000Y-39790000D03*
D17*
%TO.P,DISPLAY2.8"1,2,GND*%
%TO.N,-BATT*%
X154300000Y-42330000D03*
%TO.P,DISPLAY2.8"1,3,~{CS}*%
%TO.N,unconnected-(DISPLAY2.8"1-~{CS}-Pad3)*%
X154300000Y-44870000D03*
%TO.P,DISPLAY2.8"1,4,RESET*%
%TO.N,unconnected-(DISPLAY2.8"1-RESET-Pad4)*%
X154300000Y-47410000D03*
%TO.P,DISPLAY2.8"1,5,D/~{C}*%
%TO.N,unconnected-(DISPLAY2.8"1-D{slash}~{C}-Pad5)*%
X154300000Y-49950000D03*
%TO.P,DISPLAY2.8"1,6,MOSI*%
%TO.N,unconnected-(DISPLAY2.8"1-MOSI-Pad6)*%
X154300000Y-52490000D03*
%TO.P,DISPLAY2.8"1,7,SCK*%
%TO.N,unconnected-(DISPLAY2.8"1-SCK-Pad7)*%
X154300000Y-55030000D03*
%TO.P,DISPLAY2.8"1,8,LED*%
%TO.N,unconnected-(DISPLAY2.8"1-LED-Pad8)*%
X154300000Y-57570000D03*
%TO.P,DISPLAY2.8"1,9,MISO*%
%TO.N,unconnected-(DISPLAY2.8"1-MISO-Pad9)*%
X154300000Y-60110000D03*
%TO.P,DISPLAY2.8"1,10,SD_CS*%
%TO.N,unconnected-(DISPLAY2.8"1-SD_CS-Pad10)*%
X217820000Y-44870000D03*
%TO.P,DISPLAY2.8"1,11,SD_MOSI*%
%TO.N,unconnected-(DISPLAY2.8"1-SD_MOSI-Pad11)*%
X217820000Y-47410000D03*
%TO.P,DISPLAY2.8"1,12,SD_MISO*%
%TO.N,unconnected-(DISPLAY2.8"1-SD_MISO-Pad12)*%
X217820000Y-49950000D03*
%TO.P,DISPLAY2.8"1,13,SD_SCK*%
%TO.N,unconnected-(DISPLAY2.8"1-SD_SCK-Pad13)*%
X217820000Y-52490000D03*
%TO.P,DISPLAY2.8"1,14,FLASH_CD*%
%TO.N,unconnected-(DISPLAY2.8"1-FLASH_CD-Pad14)*%
X217820000Y-55030000D03*
%TD*%
D13*
%TO.P,BAT1,1,Pin_1*%
%TO.N,+BATT*%
X167500000Y-86000000D03*
D14*
%TO.P,BAT1,2,Pin_2*%
%TO.N,-BATT*%
X164960000Y-86000000D03*
%TD*%
D13*
%TO.P,J2,1,Pin_1*%
%TO.N,Net-(J2-Pin_1)*%
X184460000Y-92000000D03*
D14*
%TO.P,J2,2,Pin_2*%
%TO.N,-BATT*%
X187000000Y-92000000D03*
%TD*%
D13*
%TO.P,J4,1,Pin_1*%
%TO.N,Net-(J4-Pin_1)*%
X193500000Y-92000000D03*
D14*
%TO.P,J4,2,Pin_2*%
%TO.N,-BATT*%
X196040000Y-92000000D03*
%TD*%
D13*
%TO.P,J5,1,Pin_1*%
%TO.N,Net-(J5-Pin_1)*%
X202225000Y-92000000D03*
D14*
%TO.P,J5,2,Pin_2*%
%TO.N,-BATT*%
X204765000Y-92000000D03*
%TD*%
D13*
%TO.P,J3,1,Pin_1*%
%TO.N,+12V*%
X150500000Y-77225000D03*
D14*
%TO.P,J3,2,Pin_2*%
%TO.N,-BATT*%
X150500000Y-79765000D03*
%TD*%
D18*
%TO.P,M2,1,IN*%
%TO.N,-VSW*%
X201500000Y-65000000D03*
D19*
%TO.P,M2,2,OUT*%
%TO.N,+3V3*%
X196000000Y-68000000D03*
D18*
X201500000Y-68000000D03*
%TO.P,M2,3,GND*%
%TO.N,-BATT*%
X201500000Y-71000000D03*
%TD*%
D13*
%TO.P,SW1,1,Pin_1*%
%TO.N,+VSW*%
X219500000Y-82500000D03*
D14*
%TO.P,SW1,2,Pin_2*%
%TO.N,-VSW*%
X219500000Y-79960000D03*
%TD*%
D20*
%TO.P,BOOT1,1,1*%
%TO.N,Net-(U2-IO0)*%
X164750000Y-49250000D03*
X171250000Y-49250000D03*
%TO.P,BOOT1,2,2*%
%TO.N,-BATT*%
X164750000Y-44750000D03*
X171250000Y-44750000D03*
%TD*%
D13*
%TO.P,J1,1,Pin_1*%
%TO.N,-BATT*%
X169000000Y-32700000D03*
D14*
%TO.P,J1,2,Pin_2*%
%TO.N,Net-(J1-Pin_2)*%
X169000000Y-35240000D03*
%TO.P,J1,3,Pin_3*%
%TO.N,Net-(J1-Pin_3)*%
X169000000Y-37780000D03*
%TO.P,J1,4,Pin_4*%
%TO.N,+3V3*%
X169000000Y-40320000D03*
%TD*%
D21*
%TO.P,M1,B+,B+*%
%TO.N,Net-(D2-A)*%
X176000000Y-72000000D03*
%TO.P,M1,B-,B-*%
%TO.N,-BATT*%
X176000000Y-86000000D03*
%TO.P,M1,IN+,IN+*%
%TO.N,+12V*%
X154000000Y-72000000D03*
%TO.P,M1,IN-,IN-*%
%TO.N,-BATT*%
X154000000Y-86000000D03*
%TD*%
D22*
%TO.P,U2,39,GND*%
%TO.N,-BATT*%
X188050000Y-40787500D03*
X188050000Y-39262500D03*
X187287500Y-41550000D03*
X187287500Y-40025000D03*
X187287500Y-38500000D03*
X186525000Y-40787500D03*
X186525000Y-39262500D03*
X185762500Y-41550000D03*
X185762500Y-40025000D03*
X185762500Y-38500000D03*
X185000000Y-40787500D03*
X185000000Y-39262500D03*
%TD*%
D23*
%TO.N,+3V3*%
X197644586Y-35294065D03*
D24*
X218500000Y-94750000D03*
X196500000Y-68000000D03*
%TO.N,-BATT*%
X201500000Y-71000000D03*
X180000000Y-52500000D03*
%TO.N,+VSW*%
X199000000Y-84500000D03*
%TO.N,-VSW*%
X201518054Y-65044590D03*
%TD*%
D25*
%TO.N,Net-(U2-IO0)*%
X164750000Y-49250000D02*
X171250000Y-49250000D01*
%TO.N,+3V3*%
X197644586Y-35294065D02*
X197438651Y-35500000D01*
X160500000Y-48000000D02*
X160500000Y-43790000D01*
X184000000Y-35500000D02*
X182500000Y-37000000D01*
X154300000Y-39790000D02*
X156500000Y-39790000D01*
X160500000Y-43790000D02*
X156500000Y-39790000D01*
X182500000Y-37000000D02*
X172320000Y-37000000D01*
X172320000Y-37000000D02*
X169000000Y-40320000D01*
D26*
X168470000Y-39790000D02*
X169000000Y-40320000D01*
D25*
X180500000Y-68000000D02*
X160500000Y-48000000D01*
X197438651Y-35500000D02*
X184000000Y-35500000D01*
X156500000Y-39790000D02*
X168470000Y-39790000D01*
X201147695Y-68000000D02*
X180500000Y-68000000D01*
%TO.N,-BATT*%
X175750000Y-44750000D02*
X171250000Y-44750000D01*
X213765000Y-94235000D02*
X213000000Y-95000000D01*
X187000000Y-92000000D02*
X187000000Y-95249000D01*
X195751000Y-95249000D02*
X204000000Y-95249000D01*
X223000000Y-86000000D02*
X217000000Y-92000000D01*
X217000000Y-92000000D02*
X213765000Y-92000000D01*
X202500000Y-71000000D02*
X205000000Y-68500000D01*
X180749000Y-95249000D02*
X176000000Y-90500000D01*
X205000000Y-61500000D02*
X204500000Y-61000000D01*
X195751000Y-95249000D02*
X187000000Y-95249000D01*
X201500000Y-71000000D02*
X217500000Y-71000000D01*
X187000000Y-95249000D02*
X180749000Y-95249000D01*
X204000000Y-95249000D02*
X204765000Y-95249000D01*
X204765000Y-95249000D02*
X204765000Y-92000000D01*
X171250000Y-44750000D02*
X164750000Y-44750000D01*
X195751000Y-95249000D02*
X196040000Y-94960000D01*
X196040000Y-94960000D02*
X196040000Y-92000000D01*
X174000000Y-86000000D02*
X176000000Y-86000000D01*
X204500000Y-61000000D02*
X192000000Y-61000000D01*
X161400000Y-86000000D02*
X163000000Y-84400000D01*
X223000000Y-76500000D02*
X223000000Y-86000000D01*
X192000000Y-61000000D02*
X183500000Y-52500000D01*
X154000000Y-86000000D02*
X161400000Y-86000000D01*
X201500000Y-71000000D02*
X202500000Y-71000000D01*
X213000000Y-95000000D02*
X212751000Y-95249000D01*
X163000000Y-84400000D02*
X166400000Y-81000000D01*
X217500000Y-71000000D02*
X223000000Y-76500000D01*
X183500000Y-52500000D02*
X175750000Y-44750000D01*
X169000000Y-81000000D02*
X174000000Y-86000000D01*
X166400000Y-81000000D02*
X169000000Y-81000000D01*
X197500000Y-32500000D02*
X197000000Y-32500000D01*
X163000000Y-84400000D02*
X163360000Y-84400000D01*
X205000000Y-68500000D02*
X205000000Y-61500000D01*
X212751000Y-95249000D02*
X204498000Y-95249000D01*
X213765000Y-92000000D02*
X213765000Y-94235000D01*
X183500000Y-52500000D02*
X180000000Y-52500000D01*
X176000000Y-90500000D02*
X176000000Y-86000000D01*
X163360000Y-84400000D02*
X164960000Y-86000000D01*
%TO.N,+VSW*%
X199000000Y-84500000D02*
X214500000Y-84500000D01*
X214500000Y-84500000D02*
X216500000Y-82500000D01*
X216500000Y-82500000D02*
X219500000Y-82500000D01*
%TD*%
M02*
